<?xml version="1.0" encoding="utf-8"?>
<!-- Generator: Adobe Illustrator 19.2.0, SVG Export Plug-In . SVG Version: 6.00 Build 0)  -->
<svg version="1.1" id="Layer_6" xmlns="http://www.w3.org/2000/svg" xmlns:xlink="http://www.w3.org/1999/xlink" x="0px" y="0px"
	 viewBox="254.5 -42.5 1088.1 1088.1" style="enable-background:new 254.5 -42.5 1088.1 1088.1;" xml:space="preserve">
<style type="text/css">
	.st0{fill:#00283D;}
</style>
<g>
	<g>
		<path class="st0" d="M998.2,455.7c-32.9-30-74.3-61.4-122.9-92.9c-51.4-31.4-102.9-58.6-152.9-78.6c-21.4-8.6-45.7,2.9-51.4,25.7
			c-11.4,50-18.6,108.6-18.6,171.4c0,61.4,7.1,122.9,18.6,174.3c5.7,22.9,30,34.3,51.4,25.7c50-20,102.9-47.1,152.9-78.6
			S966.8,540,998.2,510C1013.9,494.3,1013.9,470,998.2,455.7z"/>
	</g>
	<g>
		<path class="st0" d="M1288.2,88.6l-8.6-34.3l-37.1-8.6C1112.5,15.7,958.2,0,796.8,0S482.5,15.7,351.1,45.7l-35.7,8.6l-8.6,34.3
			c-32.9,120-50,262.9-50,411.4s17.1,291.4,50,411.4l8.6,34.3l37.1,8.6c130,30,284.3,45.7,445.7,45.7c161.4,0,314.3-15.7,445.7-45.7
			l37.1-8.6l8.6-34.3c32.9-121.4,50-262.9,50-411.4C1338.2,351.4,1321.1,208.6,1288.2,88.6z M1186.8,837.1l-5.7,20l-21.4,4.3
			c-107.1,24.3-232.9,37.1-364.3,37.1c-131.4,0-257.1-12.9-364.3-37.1l-21.4-4.3l-5.7-20c-25.7-98.6-40-214.3-40-337.1
			c0-121.4,14.3-238.6,40-337.1l5.7-20l21.4-4.3c107.1-24.3,232.9-37.1,364.3-37.1c131.4,0,257.1,12.9,364.3,37.1l21.4,4.3l5.7,20
			c25.7,98.6,40,214.3,40,337.1C1226.8,621.4,1213.9,738.6,1186.8,837.1z"/>
	</g>
</g>
</svg>
